<svg width="32" height="24" viewBox="0 0 32 24" fill="none" xmlns="http://www.w3.org/2000/svg">
<g clip-path="url(#clip0_2032_257)">
<path d="M26.76 2.00996C24.7233 1.05745 22.5731 0.381713 20.3645 0C20.0622 0.551901 19.7888 1.11973 19.5452 1.70112C17.1926 1.33898 14.8001 1.33898 12.4474 1.70112C12.2038 1.11979 11.9303 0.551968 11.6282 0C9.41811 0.384937 7.26654 1.06228 5.22776 2.01494C1.18025 8.132 0.0830347 14.0971 0.631642 19.9776C3.00196 21.7665 5.65503 23.127 8.47552 24C9.1106 23.1275 9.67258 22.2018 10.1555 21.2329C9.23828 20.883 8.35303 20.4512 7.50997 19.9427C7.73185 19.7783 7.94885 19.609 8.15854 19.4446C10.6117 20.623 13.2891 21.234 16 21.234C18.7108 21.234 21.3883 20.623 23.8414 19.4446C24.0535 19.6214 24.2705 19.7908 24.49 19.9427C23.6453 20.4521 22.7584 20.8846 21.8396 21.2354C22.3219 22.2039 22.8839 23.1287 23.5196 24C26.3425 23.1305 28.9976 21.7707 31.3683 19.9801C32.012 13.1606 30.2687 7.25031 26.76 2.00996ZM10.8504 16.3611C9.32159 16.3611 8.05857 14.944 8.05857 13.2005C8.05857 11.457 9.2777 10.0274 10.8455 10.0274C12.4133 10.0274 13.6666 11.457 13.6397 13.2005C13.6129 14.944 12.4084 16.3611 10.8504 16.3611ZM21.1496 16.3611C19.6183 16.3611 18.3602 14.944 18.3602 13.2005C18.3602 11.457 19.5793 10.0274 21.1496 10.0274C22.7198 10.0274 23.9633 11.457 23.9365 13.2005C23.9097 14.944 22.7076 16.3611 21.1496 16.3611Z" fill="white" fill-opacity="0.6"/>
</g>
<defs>
<clipPath id="clip0_2032_257">
<rect width="31" height="24" fill="white" transform="translate(0.5)"/>
</clipPath>
</defs>
</svg>
