<svg width="296" height="72" viewBox="0 0 296 72" fill="none" xmlns="http://www.w3.org/2000/svg">
<path d="M0 71.1818V0.818186H34.7171C39.2653 0.818186 42.9304 1.32954 45.7126 2.35227C48.5633 3.3062 50.7013 4.77336 52.1266 6.75001C53.6205 8.65972 54.6034 11.0454 55.0791 13.9091C55.6215 16.7039 55.8936 19.9097 55.8936 23.5227C55.8936 26.1818 55.69 28.8744 55.2827 31.6023C54.8755 34.2614 53.9925 36.7159 52.6357 38.9659C51.3455 41.1471 49.3444 42.8188 46.6289 43.9773L57.2171 71.1818H38.7895L28.914 43.0568L33.3936 45.5114C32.7827 45.8517 32.1386 46.0562 31.4592 46.125C30.8484 46.1938 30.0672 46.2273 29.1176 46.2273H17.7149V71.1818H0ZM17.7149 33.0341H27.8959C30.2042 33.0341 32.0368 32.9318 33.3936 32.7273C34.8189 32.4539 35.8704 31.9779 36.5497 31.2955C37.2291 30.613 37.6696 29.6591 37.8732 28.4318C38.0769 27.2045 38.1787 25.637 38.1787 23.7273C38.1787 21.7506 38.0769 20.1477 37.8732 18.9205C37.7381 17.6932 37.3309 16.7727 36.6515 16.1591C36.0407 15.4767 35.0226 15.0006 33.5972 14.7273C32.2404 14.4539 30.3393 14.3182 27.8959 14.3182H17.7149V33.0341ZM86.6272 72C81.7403 72 77.7031 71.6932 74.5118 71.0796C71.3224 70.4659 68.7771 69.512 66.8761 68.2159C65.0435 66.8529 63.6534 65.1143 62.7019 63C61.8208 60.8858 61.2432 58.3643 60.9711 55.4318C60.7675 52.4994 60.6657 49.0909 60.6657 45.2045C60.6657 40.5 60.8693 36.4426 61.2765 33.0341C61.7523 29.6256 62.7704 26.8289 64.3308 24.6477C65.8932 22.4665 68.3014 20.8636 71.5593 19.8409C74.8857 18.7494 79.3654 18.2045 84.9982 18.2045C89.5464 18.2045 93.2448 18.5448 96.0955 19.2273C98.9462 19.8409 101.186 20.8302 102.815 22.1932C104.512 23.4893 105.701 25.1926 106.378 27.3068C107.126 29.4211 107.6 31.9779 107.804 34.9773C108.007 37.9097 108.109 41.3182 108.109 45.2045V49.1932H76.8534C76.8534 51.512 76.9553 53.3864 77.1589 54.8182C77.3625 56.1812 77.9067 57.2039 78.7878 57.8864C79.6708 58.5688 81.0277 59.0448 82.8602 59.3182C84.6928 59.5227 87.2381 59.625 90.496 59.625C91.7862 59.625 93.3133 59.5915 95.0774 59.5227C96.8433 59.4539 98.6759 59.3517 100.575 59.2159C102.545 59.0802 104.377 58.9426 106.073 58.8068V70.2614C104.581 70.6017 102.748 70.9085 100.575 71.1818C98.4723 71.4552 96.1973 71.6597 93.7539 71.7954C91.3104 71.9312 88.9355 72 86.6272 72ZM92.7358 42.3409V40.7045C92.7358 38.25 92.6006 36.3068 92.3285 34.875C92.1249 33.4432 91.7177 32.387 91.1068 31.7045C90.5645 30.9552 89.7833 30.4773 88.7652 30.2727C87.7471 30.0682 86.4587 29.9659 84.8964 29.9659C83.1323 29.9659 81.707 30.1016 80.6204 30.375C79.6023 30.5795 78.823 31.0574 78.2788 31.8068C77.7364 32.5562 77.3625 33.6477 77.1589 35.0796C76.9553 36.5114 76.8534 38.3857 76.8534 40.7045H94.4665L92.7358 42.3409ZM114.893 71.1818V0.818186H139.429C145.675 0.818186 150.766 1.15848 154.701 1.84092C158.638 2.45456 161.726 3.54607 163.966 5.11364C166.205 6.61426 167.801 8.72666 168.751 11.4546C169.769 14.1136 170.415 17.4552 170.685 21.4773C170.957 25.4994 171.092 30.3415 171.092 36C171.092 41.6585 170.957 46.5006 170.685 50.5227C170.415 54.5448 169.769 57.9198 168.751 60.6477C167.801 63.3068 166.205 65.4211 163.966 66.9886C161.726 68.4892 158.638 69.5789 154.701 70.2614C150.766 70.875 145.675 71.1818 139.429 71.1818H114.893ZM132.608 57.4773H139.022C141.806 57.4773 144.079 57.4085 145.843 57.2727C147.609 57.0682 149 56.6591 150.018 56.0455C151.104 55.363 151.85 54.2734 152.257 52.7727C152.733 51.2052 153.005 49.0909 153.072 46.4318C153.209 43.7039 153.276 40.2267 153.276 36C153.276 31.7733 153.209 28.3295 153.072 25.6704C153.005 22.9425 152.733 20.8302 152.257 19.3296C151.784 17.762 151.036 16.637 150.018 15.9545C149 15.2721 147.609 14.863 145.843 14.7273C144.079 14.5915 141.806 14.5227 139.022 14.5227H132.608V57.4773ZM207.311 72C201.406 72 196.552 71.6597 192.752 70.9773C189.018 70.2279 186.099 69.0675 183.996 67.5C181.892 65.8636 180.331 63.6824 179.313 60.9545C178.362 58.1597 177.751 54.7159 177.48 50.625C177.277 46.5341 177.175 41.6585 177.175 36C177.175 30.3415 177.277 25.4659 177.48 21.375C177.751 17.2841 178.362 13.8756 179.313 11.1477C180.331 8.35288 181.892 6.16985 183.996 4.60228C186.099 2.96592 189.018 1.80743 192.752 1.12499C196.552 0.375612 201.406 0 207.311 0C213.147 0 217.932 0.375612 221.666 1.12499C225.466 1.80743 228.452 2.96592 230.625 4.60228C232.796 6.16985 234.357 8.35288 235.308 11.1477C236.258 13.8756 236.869 17.2841 237.141 21.375C237.411 25.4659 237.548 30.3415 237.548 36C237.548 41.6585 237.411 46.5341 237.141 50.625C236.869 54.7159 236.258 58.1597 235.308 60.9545C234.357 63.6824 232.796 65.8636 230.625 67.5C228.452 69.0675 225.466 70.2279 221.666 70.9773C217.932 71.6597 213.147 72 207.311 72ZM207.311 58.2955C209.754 58.2955 211.722 58.2267 213.216 58.0909C214.776 57.8864 215.998 57.4438 216.881 56.7614C217.762 56.012 218.408 54.8517 218.815 53.2841C219.222 51.7165 219.459 49.5335 219.528 46.7386C219.663 43.9438 219.731 40.3643 219.731 36C219.731 31.6357 219.663 28.0562 219.528 25.2613C219.459 22.4665 219.222 20.2835 218.815 18.7159C218.408 17.1484 217.762 16.0233 216.881 15.3409C215.998 14.5915 214.776 14.1471 213.216 14.0114C211.722 13.8068 209.754 13.7045 207.311 13.7045C204.934 13.7045 202.966 13.8068 201.406 14.0114C199.843 14.1471 198.622 14.5915 197.741 15.3409C196.858 16.0233 196.213 17.1484 195.806 18.7159C195.399 20.2835 195.127 22.4665 194.992 25.2613C194.923 28.0562 194.89 31.6357 194.89 36C194.89 40.3643 194.923 43.9438 194.992 46.7386C195.127 49.5335 195.399 51.7165 195.806 53.2841C196.213 54.8517 196.858 56.012 197.741 56.7614C198.622 57.4438 199.843 57.8864 201.406 58.0909C202.966 58.2267 204.934 58.2955 207.311 58.2955ZM259.043 71.1818V15.1364H239.903V0.818186H296V15.1364H276.758V71.1818H259.043Z" fill="white"/>
</svg>
