<svg width="97" height="101" viewBox="0 0 97 101" fill="none" xmlns="http://www.w3.org/2000/svg">
<path d="M35.4912 0L33.0204 7.88396C30.3289 9.05951 27.6372 10.2349 24.946 11.4112C22.0904 10.8038 19.2275 10.1004 16.3338 9.74794C15.877 10.2671 4.31891 28.2188 4.32216 28.4043C4.85467 29.7211 5.76927 30.8539 6.46097 32.0862L48.5 46.5622L90.5391 32.0862L92.6778 28.4043C92.6778 28.4043 81.1229 10.2671 80.6661 9.74794C77.7724 10.1004 74.9095 10.8038 72.0539 11.4112C69.3628 10.2349 66.6712 9.05951 63.9797 7.88396L61.5086 0H35.4912ZM9.50189 37.5987L8.1513 50.9793L10.5673 61.2939L29.9463 70.1852L48.5 63.1782L67.0535 70.1852L86.4326 61.2939L88.8487 50.9793C88.8487 50.9793 88.0044 41.7684 87.4981 37.5987L48.5 51.0215L9.50189 37.5987ZM20.7262 47.6205L39.007 53.9889C38.9282 54.653 38.7837 55.3073 38.5754 55.9422C36.7958 61.1508 31.1712 63.9165 26.0128 62.1194C20.8543 60.3225 18.1153 54.6433 19.8951 49.4347C20.1113 48.8034 20.3898 48.1956 20.7262 47.6205ZM76.2738 47.6205C76.6102 48.1956 76.8888 48.8034 77.105 49.4347C78.8848 54.6433 76.1457 60.3225 70.9873 62.1194C65.8289 63.9165 60.2043 61.1508 58.4247 55.9422C58.2164 55.3073 58.0717 54.653 57.9931 53.9889L76.2738 47.6205ZM4.65363 54.555L0 59.2112L6.97159 83.8952L29.0059 93.0213L27.8205 73.8195L6.92441 64.0007L4.65363 54.555ZM92.3462 54.555L90.0757 64.0007L69.1796 73.8195L67.9941 93.0213L90.0284 83.8952L97 59.2112L92.3462 54.555ZM48.5 67.2693L31.9769 73.8724L32.9798 94.6154L48.5 101L64.0202 94.6154L65.0232 73.8724L48.5 67.2693Z" fill="#FE3F02"/>
</svg>
